# xmcd
#
# Track frame offsets:
#	150
#	12872
#	23912
#	35410
#	46442
#	60232
#	77450
#	94875
#	109685
#	122960
#	137400
#	153352
#	177525
#	189520
#	210510
#	223630
#
# Disc length: 3242 seconds
#
# Revision: 1
# Processed by: cddbd v1.5.2PL0 Copyright (c) Steve Scherf et al.
# Submitted via: audiograbber 1.81.02
#
DISCID=d00ca810
DTITLE=Various Artist - Ich fühl mich wohl
DYEAR=2007
DGENRE=Christian Rock
TTITLE0=Unser Lob soll laut erklingen
TTITLE1=Mittendrin
TTITLE2=Boxenstopp
TTITLE3=Jahreszeiten
TTITLE4=Kunterbunte Welt
TTITLE5=Geh aus, mein Herz
TTITLE6=Das Osterfest
TTITLE7=Wenn du ganz unten bist
TTITLE8=Wohin ich auch geh
TTITLE9=Uns zur Freude gemacht
TTITLE10=Ein starker Gott
TTITLE11=Only One
TTITLE12=W.W.J.D
TTITLE13=In seine Hand geschrieben
TTITLE14=Ich fühl mich wohl in deinen Armen
TTITLE15=Breite deine guten Hände über unsrer Erde aus - Der Mond schaut zum Fe
TTITLE15=nster herein
EXTD=www.gerth.de, Art.-Nr. 939947
EXTT0=
EXTT1=
EXTT2=
EXTT3=
EXTT4=
EXTT5=
EXTT6=
EXTT7=
EXTT8=
EXTT9=
EXTT10=
EXTT11=
EXTT12=
EXTT13=
EXTT14=
EXTT15=
PLAYORDER=
